<?xml version="1.0" encoding="UTF-8" standalone="no"?>
<svg
   xmlns:dc="http://purl.org/dc/elements/1.1/"
   xmlns:cc="http://creativecommons.org/ns#"
   xmlns:rdf="http://www.w3.org/1999/02/22-rdf-syntax-ns#"
   xmlns:svg="http://www.w3.org/2000/svg"
   xmlns="http://www.w3.org/2000/svg"
   version="1.1"
   id="svg2"
   xml:space="preserve"
   width="46"
   height="46"
   viewBox="0 0 46 46"><metadata
     id="metadata8"><rdf:RDF><cc:Work
         rdf:about=""><dc:format>image/svg+xml</dc:format><dc:type
           rdf:resource="http://purl.org/dc/dcmitype/StillImage" /><dc:title></dc:title></cc:Work></rdf:RDF></metadata><defs
     id="defs6" /><g
     id="g10"
     transform="matrix(1.3333333,0,0,-1.3333333,315.90273,489.92247)"><g
       id="g12"
       transform="scale(0.1)"><path
         d="m -2024.2705,3329.4186 h -345 v 345 h 345 v -345"
         style="fill:#231f20;fill-opacity:1;fill-rule:nonzero;stroke:none;stroke-width:0.0901238"
         id="path14" /><path
         d="m -2196.7855,3660.7929 c -89.94,0 -162.88,-72.93 -162.88,-162.9 0,-71.97 46.67,-133.02 111.4,-154.56 8.15,-1.5 11.12,3.53 11.12,7.85 0,3.87 -0.14,14.11 -0.22,27.7 -45.31,-9.84 -54.87,21.84 -54.87,21.84 -7.41,18.82 -18.09,23.83 -18.09,23.83 -14.79,10.1 1.12,9.9 1.12,9.9 16.35,-1.15 24.95,-16.79 24.95,-16.79 14.53,-24.89 38.13,-17.7 47.41,-13.53 1.48,10.52 5.69,17.7 10.34,21.77 -36.17,4.11 -74.2,18.09 -74.2,80.51 0,17.78 6.35,32.33 16.77,43.71 -1.68,4.12 -7.27,20.69 1.6,43.11 0,0 13.67,4.38 44.79,-16.7 12.99,3.62 26.93,5.42 40.78,5.49 13.84,-0.07 27.77,-1.87 40.78,-5.49 31.1,21.08 44.75,16.7 44.75,16.7 8.89,-22.42 3.3,-38.99 1.63,-43.11 10.44,-11.38 16.74,-25.93 16.74,-43.71 0,-62.58 -38.09,-76.35 -74.37,-80.38 5.84,-5.03 11.05,-14.97 11.05,-30.16 0,-21.78 -0.2,-39.35 -0.2,-44.69 0,-4.36 2.94,-9.43 11.2,-7.84 64.68,21.59 111.31,82.6 111.31,154.55 0,89.97 -72.94,162.9 -162.91,162.9"
         style="fill:#ffffff;fill-opacity:1;fill-rule:evenodd;stroke:none"
         id="path106" /></g></g></svg>
